<svg xmlns="http://www.w3.org/2000/svg" xmlns:xlink="http://www.w3.org/1999/xlink" width="162.856" height="136.807" viewBox="0 0 162.856 136.807">
  <defs>
    <clipPath id="clip-path">
      <rect id="Rectangle_402" data-name="Rectangle 402" width="162.856" height="136.807" fill="none"/>
    </clipPath>
  </defs>
  <g id="Groupe_357" data-name="Groupe 357" transform="translate(6726.199 1064.926)">
    <g id="Groupe_290" data-name="Groupe 290" transform="translate(-6726.199 -1064.926)">
      <rect id="Rectangle_427" data-name="Rectangle 427" width="104.603" height="30.209" transform="translate(26.947 58.34)" fill="#fff"/>
      <rect id="Rectangle_428" data-name="Rectangle 428" width="9.919" height="16.682" transform="translate(127.492 56.988)" fill="#fff"/>
      <g id="Groupe_255" data-name="Groupe 255" transform="translate(0 0)">
        <g id="Groupe_254" data-name="Groupe 254" clip-path="url(#clip-path)">
          <path id="Tracé_1735" data-name="Tracé 1735" d="M141.113,49.476l-.731-1.617c-2.76-6.043-9.947-23.484-10.084-31.528l-.049-2.661-2.282-.7C123,11.444,84.248,4.922,75.275,4.57l-.1-.005-.121.005c-8.968.352-47.721,6.873-52.681,8.4l-2.287.7-.049,2.661c-.137,8.017-7.324,25.48-10.079,31.528l-.737,1.617h0l.737,1.617c2.755,6.054,9.941,23.517,10.079,31.534l.049,2.656,2.287.7c4.96,1.523,43.713,8.05,52.681,8.4l.121.006.1-.006c8.973-.352,47.727-6.879,52.692-8.4l2.282-.7.049-2.656c.137-8.044,7.324-25.485,10.084-31.534Zm-12.4,33.117-.022,1.331-1.138.352c-4.927,1.507-43.41,7.984-52.329,8.336l-.049.006-.06-.006c-8.913-.352-47.4-6.829-52.323-8.336l-1.144-.352-.022-1.331c-.137-7.874-6.29-23.094-9-29.428-.748-1.754-1.237-2.832-1.259-2.881l-.368-.808.368-.808c.022-.049.511-1.116,1.259-2.876,2.711-6.334,8.864-21.554,9-29.428l.022-1.331,1.144-.352C27.707,13.17,66.2,6.7,75.11,6.346l.06-.005.049.005c8.918.352,47.4,6.824,52.329,8.336l1.138.352.022,1.331c.143,7.868,6.3,23.094,9.006,29.428h-.006c.748,1.76,1.237,2.826,1.259,2.876l.368.808-.368.808c-.022.049-.511,1.127-1.259,2.881h.006C135,59.5,128.852,74.725,128.709,82.594" transform="translate(5.99 20.535)" fill="#e34b1b"/>
          <path id="Tracé_1736" data-name="Tracé 1736" d="M16.233,16.419h1.13L16.8,15.1Z" transform="translate(37.553 67.92)" fill="#e34b1b"/>
          <path id="Tracé_1737" data-name="Tracé 1737" d="M20.218,16.419h1.126l-.564-1.32Z" transform="translate(55.484 67.92)" fill="#e34b1b"/>
          <path id="Tracé_1738" data-name="Tracé 1738" d="M23.4,15.081a1.059,1.059,0,0,0-1.078,1.045A1.072,1.072,0,0,0,23.4,17.187a1.053,1.053,0,1,0,0-2.106" transform="translate(64.951 67.841)" fill="#e34b1b"/>
          <path id="Tracé_1739" data-name="Tracé 1739" d="M26.612,16.544a2.761,2.761,0,0,0,1.463-1.457,2.718,2.718,0,0,0,.214-1.067,2.66,2.66,0,0,0-.214-1.067,2.751,2.751,0,0,0-.588-.874,2.814,2.814,0,0,0-.874-.588,2.679,2.679,0,0,0-1.067-.214H22.791v5.482h2.755a2.679,2.679,0,0,0,1.067-.214" transform="translate(67.056 50.725)" fill="#e34b1b"/>
          <path id="Tracé_1740" data-name="Tracé 1740" d="M32.742,12.517a4.409,4.409,0,0,0-1.391-.929,4.367,4.367,0,0,0-3.409,0A4.318,4.318,0,0,0,25.61,13.9a4.2,4.2,0,0,0-.346,1.694,4.14,4.14,0,0,0,.346,1.688,4.534,4.534,0,0,0,.935,1.38,4.418,4.418,0,0,0,1.4.935,4.432,4.432,0,0,0,3.409,0,4.333,4.333,0,0,0,1.391-.935,4.533,4.533,0,0,0,.935-1.38,4.14,4.14,0,0,0,.346-1.688,4.2,4.2,0,0,0-.346-1.694,4.493,4.493,0,0,0-.935-1.386" transform="translate(78.181 50.567)" fill="#e34b1b"/>
          <path id="Tracé_1741" data-name="Tracé 1741" d="M12.99,16.419h1.129l-.564-1.32Z" transform="translate(22.968 67.92)" fill="#e34b1b"/>
          <path id="Tracé_1742" data-name="Tracé 1742" d="M24,16.544a2.751,2.751,0,0,0,.874-.588,2.746,2.746,0,0,0,.808-1.935,2.772,2.772,0,0,0-.808-1.941A2.751,2.751,0,0,0,24,11.49a2.653,2.653,0,0,0-1.061-.214H20.18v5.482h2.755A2.653,2.653,0,0,0,24,16.544" transform="translate(55.311 50.725)" fill="#e34b1b"/>
          <path id="Tracé_1743" data-name="Tracé 1743" d="M13.914,15.979a.609.609,0,0,0,.742.407c.88-.319,1.078-1.38.968-3.695-1.193,1.067-2.023,2.425-1.71,3.288" transform="translate(26.826 57.09)" fill="#e34b1b"/>
          <path id="Tracé_1744" data-name="Tracé 1744" d="M16.827,16.248a1.284,1.284,0,0,0-2.568,0,1.284,1.284,0,0,0,2.568,0" transform="translate(28.676 67.427)" fill="#e34b1b"/>
          <path id="Tracé_1745" data-name="Tracé 1745" d="M29.489,15.083H28.78V16.26h.709c.462,0,.726-.2.726-.6s-.264-.577-.726-.577" transform="translate(93.998 67.85)" fill="#e34b1b"/>
          <path id="Tracé_1746" data-name="Tracé 1746" d="M124.22,13.492c-5.158-1.584-43.295-7.94-51.961-8.281-8.677.341-46.808,6.7-51.971,8.281C20.107,24.076,9.863,46.57,9.863,46.57s10.244,22.5,10.425,33.084c5.163,1.578,43.295,7.934,51.971,8.281,8.666-.346,46.8-6.7,51.961-8.281C124.4,69.07,134.651,46.57,134.651,46.57S124.4,24.076,124.22,13.492M78.2,35.815h5.5a5.367,5.367,0,0,1,1.463.2,5.21,5.21,0,0,1,1.309.555,5.4,5.4,0,0,1,1.111.858,5.317,5.317,0,0,1,.863,1.116,5.172,5.172,0,0,1,.555,1.3,5.327,5.327,0,0,1,.2,1.457,5.236,5.236,0,0,1-.176,1.375,5.5,5.5,0,0,1-.511,1.265,5.126,5.126,0,0,1-.808,1.111,5.679,5.679,0,0,1-1.072.88l1.523,3.585H85.23l-1.2-2.766-3.085.022v2.744H78.2Zm-14.362,0h5.509a5.327,5.327,0,0,1,1.457.2,5.21,5.21,0,0,1,1.309.555,5.587,5.587,0,0,1,1.116.858,5.709,5.709,0,0,1,.863,1.116,5.6,5.6,0,0,1,.555,1.3,5.546,5.546,0,0,1,.192,1.457,5.237,5.237,0,0,1-.176,1.375,5.735,5.735,0,0,1-.506,1.265,5.341,5.341,0,0,1-.814,1.111,5.511,5.511,0,0,1-1.072.88l1.523,3.585H70.868l-1.2-2.766-3.079.022v2.744H63.836Zm-39.655,26.2H22.026V58.447h.6v3.024h1.551Zm4.487,0-.291-.665H26.87l-.286.665h-.528l1.325-2.975h.511L29.2,62.016Zm2.37-11.91c-.577-1.573.968-3.508,2.458-4.751-.027-.308-.049-.61-.077-.951a2.428,2.428,0,0,1-1.325,1.661,1.15,1.15,0,0,1-1.534-.61,3.243,3.243,0,0,1-1.595,1.754,1.244,1.244,0,0,1-1.82-1.045L25.9,40.132l-.4,7.489a1.107,1.107,0,0,1-.808,1.138,1.206,1.206,0,0,1-.671.06L22.427,43.04l-.478-1.507c.28,6.081-.4,8.369-1.913,8.913-.638.236-1.32-.209-1.732-1.336-.264-.737.165-1.138.737-1.342a1.1,1.1,0,0,1,.715-.016,3.549,3.549,0,0,0,.209,1.4l.044.11c.863-.742,1.578-2.766,1.177-9.622l-.06.022c-1.16.423-1.342,1.221-1.127,1.814a1.263,1.263,0,0,0,.522.643,1.226,1.226,0,0,1-.5.324,1.166,1.166,0,0,1-1.468-.83c-.291-.8-.017-1.93,1.485-2.474,1.056-.379,2.342-.214,2.777-.72a.39.39,0,0,1,.3.269.493.493,0,0,1-.269.654h-.011l2.007,6.906.528-7.692a1.2,1.2,0,0,1,.8-1.21,1.616,1.616,0,0,1,.759-.088l1.622,7.676c.17.781.418.907.764.786a2.506,2.506,0,0,0,.968-.951,5.3,5.3,0,0,1-.154-.737l-.352-2.815c-.028-.22-.126-.313-.242-.269-.066.022-.121.1-.2.247a.493.493,0,0,1-.258-.7,2.439,2.439,0,0,1,1.2-1.127c.462-.165.792-.044.869.473l.539,3.937c.055.429.269.693.687.539a1.484,1.484,0,0,0,.814-.808l-.555-4.091a1.072,1.072,0,0,1,.775-1.182,1.159,1.159,0,0,1,.66-.055l.753,5.41c.027.231.06.478.093.726a3.422,3.422,0,0,1,.517-.242c.517-.192.935.236.946.786a4.612,4.612,0,0,0-1.347.445c.236,2.469.093,5.075-2.056,5.85a1.473,1.473,0,0,1-1.941-1.056m5.421,12.7a1.368,1.368,0,0,1-1.144-.764,1.809,1.809,0,1,1,1.908-1.809,1.8,1.8,0,0,1-1.292,1.721.866.866,0,0,0,.6.33,1.173,1.173,0,0,0,.66-.3l.242.423a1.56,1.56,0,0,1-.973.4m5.713-2.023a1.3,1.3,0,0,1-2.6,0V59.041h.5v1.743a.8.8,0,1,0,1.6,0V59.041h.5Zm4.322,1.232-.286-.665H44.7l-.286.665h-.528l1.32-2.975h.517l1.309,2.975Zm1.419-23.456H43.789V49.518H41.045V38.559H36.91V35.815h11Zm2.782,23.456H48.9V59.041H49.4v2.524h1.292Zm.231-26.2h9.43v2.744H53.675V41.3H58.2v2.738H53.675v2.733h6.681v2.744h-9.43Zm2.227,26.2h-.506V59.041h.506Zm4.294-2.529H56.5v2.529H56V59.486h-.946v-.445h2.4Zm4.085,2.529H59.344V59.041h2.139v.445H59.85v.808h1.463v.456H59.85v.819h1.683Zm6.873,0-.286-.665H66.613l-.286.665H65.8l1.32-2.975h.517l1.309,2.975Zm-5.476-7.956h21.6v.847h-21.6Zm12.976,4.932H74.767v3.024h-.6V58.991H73.035v-.544h2.87Zm3.547,3.046a1.508,1.508,0,1,1,1.584-1.507,1.525,1.525,0,0,1-1.584,1.507m6.131-1.254a1.3,1.3,0,0,1-2.6,0V59.041h.5v1.743a.742.742,0,0,0,.8.8.732.732,0,0,0,.792-.8V59.041h.506Zm4.234-1.3h-.951v2.529h-.5V59.486h-.946v-.445h2.4ZM93.9,62.016H91.713V59.041h2.139v.445H92.214v.808h1.468v.456H92.214v.819H93.9Zm7.841,0h-.6V60.542h-1.9v1.474h-.6V58.447h.6V60h1.9V58.447h.6Zm.775-13.169a7.5,7.5,0,0,1-1.7.715,7.332,7.332,0,0,1-3.777,0,7.611,7.611,0,0,1-1.7-.715A7.252,7.252,0,0,1,93.9,47.725a6.891,6.891,0,0,1-1.116-1.435A7.312,7.312,0,0,1,92.06,44.6a7.117,7.117,0,0,1,0-3.761,7.018,7.018,0,0,1,.726-1.688A7.191,7.191,0,0,1,93.9,37.718a7.023,7.023,0,0,1,3.14-1.82,7.178,7.178,0,0,1,3.777,0,7.249,7.249,0,0,1,1.7.709,7.135,7.135,0,0,1,2.551,2.546,7.01,7.01,0,0,1,.968,3.569,6.9,6.9,0,0,1-.253,1.88,7.28,7.28,0,0,1-.715,1.688,7.054,7.054,0,0,1-1.111,1.435,7.252,7.252,0,0,1-1.441,1.122m4.041,13.169h-2.188V59.041h2.139v.445h-1.633v.808h1.457v.456h-1.457v.819h1.683Zm4.63-1.232a1.3,1.3,0,0,1-2.606,0V59.041h.5v1.743a.744.744,0,0,0,.808.8.734.734,0,0,0,.792-.8V59.041h.506Zm.962-11.266H109.4v-13.7h2.755Zm3.118,12.5-.544-.9h-.847v.9h-.506V59.041h1.215c.764,0,1.21.368,1.21,1.017a.963.963,0,0,1-.627.968l.676.99Zm4.85,0H117.93V59.041h2.139v.445h-1.633v.808h1.457v.456h-1.457v.819h1.683Zm6.455-18.073a5.341,5.341,0,0,1-.814,1.111,5.509,5.509,0,0,1-1.072.88l1.523,3.585h-2.925l-1.2-2.766L119,46.774v2.744h-2.749v-13.7h5.509a5.327,5.327,0,0,1,1.457.2,5.209,5.209,0,0,1,1.309.555,5.4,5.4,0,0,1,1.111.858,5.533,5.533,0,0,1,.869,1.116,5.365,5.365,0,0,1,.55,1.3,5.124,5.124,0,0,1,.2,1.457,5.479,5.479,0,0,1-.176,1.375,5.737,5.737,0,0,1-.506,1.265" transform="translate(8.9 23.442)" fill="#e34b1b"/>
          <path id="Tracé_1747" data-name="Tracé 1747" d="M34.408,12.079a2.813,2.813,0,0,0-.874-.588,2.634,2.634,0,0,0-1.061-.214h-2.76v5.482h2.76a2.634,2.634,0,0,0,1.061-.214A2.8,2.8,0,0,0,35,15.086a2.713,2.713,0,0,0,.209-1.067A2.657,2.657,0,0,0,35,12.953a2.766,2.766,0,0,0-.594-.874" transform="translate(98.19 50.725)" fill="#e34b1b"/>
        </g>
      </g>
    </g>
  </g>
</svg>
